<svg width="16" height="16" viewBox="0 0 16 16" fill="none" xmlns="http://www.w3.org/2000/svg">
<path fill-rule="evenodd" clip-rule="evenodd" d="M0.450101 0.449124C0.938256 -0.039031 1.72971 -0.039031 2.21787 0.449124L15.5512 13.7825C16.0394 14.2706 16.0394 15.0621 15.5512 15.5502C15.063 16.0384 14.2716 16.0384 13.7834 15.5502L0.450101 2.21689C-0.0380545 1.72874 -0.0380545 0.93728 0.450101 0.449124Z" fill="#455A64"/>
<path fill-rule="evenodd" clip-rule="evenodd" d="M15.5512 0.449124C16.0394 0.93728 16.0394 1.72874 15.5512 2.21689L2.21787 15.5502C1.72971 16.0384 0.938256 16.0384 0.450101 15.5502C-0.0380545 15.0621 -0.0380545 14.2706 0.450101 13.7825L13.7834 0.449124C14.2716 -0.039031 15.063 -0.039031 15.5512 0.449124Z" fill="#455A64"/>
</svg>
